# xmcd
#
# Track frame offsets:
#	150
#	19567
#	37850
#	53075
#	73232
#	91872
#	106957
#	130232
#	148982
#	162327
#	183567
#	198032
#
# Disc length: 2777 seconds
#
# Revision: 0
# Processed by: cddbd v1.5.1PL0 Copyright (c) Steve Scherf et al.
# Submitted via: dBpowerAMP V4.0
#
DISCID=a00ad70c
DTITLE=Totta Näslund - Min lycka har vänt/En samling
DYEAR=1900
DGENRE=Blues
TTITLE0=Där ännu nyårsdagen sover
TTITLE1=På väg igen
TTITLE2=Jag får aldrig nånsin nog
TTITLE3=Allt inom mig
TTITLE4=Min lycka har vänt
TTITLE5=Balladen om Fredrik Åkare 
TTITLE6=Bara månen är full
TTITLE7=Mycket vill ha mer
TTITLE8=Mil efter mil
TTITLE9=Vera 
TTITLE10=Jag är fri, jag har sonat
TTITLE11=När du kommer hem till mig
EXTD=
EXTT0=
EXTT1=
EXTT2=
EXTT3=
EXTT4=
EXTT5=
EXTT6=
EXTT7=
EXTT8=
EXTT9=
EXTT10=
EXTT11=
PLAYORDER=
